<svg width="20" height="20" viewBox="0 0 20 20" fill="none" xmlns="http://www.w3.org/2000/svg">
<g id="system/close_line">
<path id="Union" fill-rule="evenodd" clip-rule="evenodd" d="M9.99992 11.1786L14.714 15.8926C15.0394 16.218 15.567 16.218 15.8925 15.8926C16.2179 15.5672 16.2179 15.0395 15.8925 14.7141L11.1784 10L15.8925 5.286C16.2179 4.96057 16.2179 4.43293 15.8925 4.10749C15.567 3.78205 15.0394 3.78205 14.714 4.10749L9.99992 8.82153L5.28587 4.10748C4.96043 3.78204 4.4328 3.78204 4.10736 4.10748C3.78192 4.43292 3.78192 4.96056 4.10736 5.28599L8.82141 10L4.10736 14.7141C3.78192 15.0395 3.78192 15.5672 4.10736 15.8926C4.4328 16.218 4.96043 16.218 5.28587 15.8926L9.99992 11.1786Z" fill="#797D80"/>
</g>
</svg>
