<svg width="27" height="26" viewBox="0 0 27 26" fill="none" xmlns="http://www.w3.org/2000/svg">
<g id="feliz">
<g id="Group">
<path id="Vector" d="M10.5116 10.0815H10.5223M16.9302 10.0815H16.9409M4.09299 12.2211C4.09299 13.4854 4.34202 14.7374 4.82587 15.9055C5.30971 17.0736 6.0189 18.135 6.91293 19.029C7.80696 19.923 8.86833 20.6322 10.0364 21.1161C11.2045 21.5999 12.4565 21.8489 13.7209 21.8489C14.9852 21.8489 16.2372 21.5999 17.4053 21.1161C18.5734 20.6322 19.6348 19.923 20.5288 19.029C21.4228 18.135 22.132 17.0736 22.6159 15.9055C23.0997 14.7374 23.3488 13.4854 23.3488 12.2211C23.3488 10.9567 23.0997 9.70473 22.6159 8.53662C22.132 7.36851 21.4228 6.30714 20.5288 5.41311C19.6348 4.51908 18.5734 3.8099 17.4053 3.32605C16.2372 2.8422 14.9852 2.59317 13.7209 2.59317C12.4565 2.59317 11.2045 2.8422 10.0364 3.32605C8.86833 3.8099 7.80696 4.51908 6.91293 5.41311C6.0189 6.30714 5.30971 7.36851 4.82587 8.53662C4.34202 9.70473 4.09299 10.9567 4.09299 12.2211Z" stroke="#B0DEE4" stroke-width="2.13953" stroke-linecap="round" stroke-linejoin="round"/>
<path id="Vector_2" d="M11.0464 15.4304C11.3951 15.7862 11.8112 16.0688 12.2704 16.2618C12.7296 16.4548 13.2227 16.5542 13.7209 16.5542C14.219 16.5542 14.7121 16.4548 15.1713 16.2618C15.6306 16.0688 16.0467 15.7862 16.3953 15.4304" stroke="#B0DEE4" stroke-width="2.13953" stroke-linecap="round" stroke-linejoin="round"/>
</g>
</g>
</svg>
