<svg width="27" height="26" viewBox="0 0 27 26" fill="none" xmlns="http://www.w3.org/2000/svg">
<g id="neutro">
<path id="Vector" d="M10.3952 10.0815H10.4059M16.8138 10.0815H16.8245M10.3952 15.4303H16.8138M3.97662 12.2211C3.97662 13.4854 4.22566 14.7374 4.7095 15.9055C5.19335 17.0736 5.90253 18.135 6.79657 19.029C7.6906 19.923 8.75197 20.6322 9.92008 21.1161C11.0882 21.5999 12.3402 21.8489 13.6045 21.8489C14.8689 21.8489 16.1208 21.5999 17.2889 21.1161C18.457 20.6322 19.5184 19.923 20.4124 19.029C21.3065 18.135 22.0157 17.0736 22.4995 15.9055C22.9834 14.7374 23.2324 13.4854 23.2324 12.2211C23.2324 10.9567 22.9834 9.70473 22.4995 8.53662C22.0157 7.36851 21.3065 6.30714 20.4124 5.41311C19.5184 4.51908 18.457 3.8099 17.2889 3.32605C16.1208 2.8422 14.8689 2.59317 13.6045 2.59317C12.3402 2.59317 11.0882 2.8422 9.92008 3.32605C8.75197 3.8099 7.6906 4.51908 6.79657 5.41311C5.90253 6.30714 5.19335 7.36851 4.7095 8.53662C4.22566 9.70473 3.97662 10.9567 3.97662 12.2211Z" stroke="#3B002B" stroke-width="2.13953" stroke-linecap="round" stroke-linejoin="round"/>
</g>
</svg>
