<svg width="23" height="22" viewBox="0 0 23 22" fill="none" xmlns="http://www.w3.org/2000/svg">
<g id="muitotriste">
<path id="Vector" d="M8.1626 9.08154H8.1733M14.5812 9.08154H14.5919M8.69748 14.6978C9.04609 14.342 9.4622 14.0593 9.92143 13.8664C10.3807 13.6734 10.8738 13.574 11.3719 13.574C11.87 13.574 12.3631 13.6734 12.8224 13.8664C13.2816 14.0593 13.6977 14.342 14.0463 14.6978M17.3262 17.2182C17.0344 17.5184 16.8371 17.8977 16.7588 18.3089C16.6804 18.7202 16.7244 19.1455 16.8854 19.532C17.0464 19.9184 17.3172 20.2492 17.6644 20.4833C18.0115 20.7173 18.4197 20.8444 18.8383 20.8488C19.257 20.8531 19.6677 20.7345 20.0196 20.5077C20.3715 20.2808 20.6491 19.9558 20.8181 19.5727C20.987 19.1896 21.0399 18.7654 20.9701 18.3526C20.9002 17.9397 20.7108 17.5565 20.4253 17.2503L18.8602 15.5001L17.3262 17.2182Z" stroke="#A80000" stroke-width="2.13953" stroke-linecap="round" stroke-linejoin="round"/>
<path id="Vector_2" d="M20.8554 12.8439C20.9496 12.3081 20.9979 11.7652 20.9998 11.2211C20.9998 9.31687 20.4351 7.45542 19.3772 5.87212C18.3193 4.28883 16.8156 3.0548 15.0563 2.32608C13.2971 1.59737 11.3612 1.40671 9.4936 1.7782C7.62597 2.1497 5.91045 3.06666 4.56396 4.41315C3.21748 5.75963 2.30051 7.47516 1.92902 9.34278C1.55753 11.2104 1.74819 13.1463 2.4769 14.9055C3.20561 16.6648 4.43964 18.1685 6.02294 19.2264C7.60624 20.2843 9.46769 20.849 11.3719 20.849C12.11 20.849 12.8268 20.7677 13.5114 20.6115" stroke="#A80000" stroke-width="2.13953" stroke-linecap="round" stroke-linejoin="round"/>
</g>
</svg>
