<svg width="26" height="26" viewBox="0 0 26 26" fill="none" xmlns="http://www.w3.org/2000/svg">
<g id="muito-feliz">
<g id="Group">
<path id="Vector" d="M9.62782 10.0815H9.63852M16.0464 10.0815H16.0571M3.20923 12.2211C3.20923 13.4854 3.45826 14.7374 3.94211 15.9055C4.42595 17.0736 5.13514 18.135 6.02917 19.029C6.9232 19.923 7.98457 20.6322 9.15268 21.1161C10.3208 21.5999 11.5728 21.8489 12.8371 21.8489C14.1015 21.8489 15.3534 21.5999 16.5215 21.1161C17.6897 20.6322 18.751 19.923 19.6451 19.029C20.5391 18.135 21.2483 17.0736 21.7321 15.9055C22.216 14.7374 22.465 13.4854 22.465 12.2211C22.465 10.9567 22.216 9.70473 21.7321 8.53662C21.2483 7.36851 20.5391 6.30714 19.6451 5.41311C18.751 4.51908 17.6897 3.8099 16.5215 3.32605C15.3534 2.8422 14.1015 2.59317 12.8371 2.59317C11.5728 2.59317 10.3208 2.8422 9.15268 3.32605C7.98457 3.8099 6.9232 4.51908 6.02917 5.41311C5.13514 6.30714 4.42595 7.36851 3.94211 8.53662C3.45826 9.70473 3.20923 10.9567 3.20923 12.2211Z" stroke="#B0E4CD" stroke-width="2.13953" stroke-linecap="round" stroke-linejoin="round"/>
<g id="Group 1">
<g id="Vector_2">
<path d="M8.55807 15.4304C9.11586 16.4464 9.78163 17.2537 10.5164 17.8047C11.2512 18.3558 12.0401 18.6397 12.8371 18.6397C13.6341 18.6397 14.4231 18.3558 15.1579 17.8047C15.8926 17.2537 16.5584 16.4464 17.1162 15.4304" fill="#B0E4CD"/>
<path d="M8.55807 15.4304C9.11586 16.4464 9.78163 17.2537 10.5164 17.8047C11.2512 18.3558 12.0401 18.6397 12.8371 18.6397C13.6341 18.6397 14.4231 18.3558 15.1579 17.8047C15.8926 17.2537 16.5584 16.4464 17.1162 15.4304" stroke="#B0E4CD" stroke-width="2.03666" stroke-linecap="round" stroke-linejoin="round"/>
</g>
<path id="Vector 38" d="M8.55807 15.4304L17.1162 15.4304" stroke="#B0E4CD" stroke-width="2.13953" stroke-linecap="round"/>
</g>
</g>
</g>
</svg>
