<svg width="27" height="26" viewBox="0 0 27 26" fill="none" xmlns="http://www.w3.org/2000/svg">
<g id="triste" clip-path="url(#clip0_201_2087)">
<g id="Group">
<path id="Vector" d="M10.4512 9.08155H10.4619M16.8698 9.08155H16.8805M4.03262 11.2211C4.03262 12.4854 4.28166 13.7374 4.7655 14.9055C5.24935 16.0736 5.95853 17.135 6.85256 18.029C7.7466 18.9231 8.80797 19.6322 9.97608 20.1161C11.1442 20.5999 12.3962 20.849 13.6605 20.849C14.9249 20.849 16.1768 20.5999 17.3449 20.1161C18.513 19.6322 19.5744 18.9231 20.4684 18.029C21.3625 17.135 22.0717 16.0736 22.5555 14.9055C23.0394 13.7374 23.2884 12.4854 23.2884 11.2211C23.2884 9.95673 23.0394 8.70476 22.5555 7.53665C22.0717 6.36854 21.3625 5.30717 20.4684 4.41314C19.5744 3.51911 18.513 2.80993 17.3449 2.32608C16.1768 1.84223 14.9249 1.5932 13.6605 1.5932C12.3962 1.5932 11.1442 1.84223 9.97608 2.32608C8.80797 2.80993 7.7466 3.51911 6.85256 4.41314C5.95853 5.30717 5.24935 6.36854 4.7655 7.53665C4.28166 8.70476 4.03262 9.95673 4.03262 11.2211Z" stroke="#3B002B" stroke-width="2.13953" stroke-linecap="round" stroke-linejoin="round"/>
<path id="Vector_2" d="M10.9861 14.6978C11.3347 14.342 11.7508 14.0594 12.21 13.8664C12.6693 13.6734 13.1624 13.574 13.6605 13.574C14.1586 13.574 14.6517 13.6734 15.111 13.8664C15.5702 14.0594 15.9863 14.342 16.3349 14.6978" stroke="#3B002B" stroke-width="2.13953" stroke-linecap="round" stroke-linejoin="round"/>
</g>
</g>
<defs>
<clipPath id="clip0_201_2087">
<rect width="25.6744" height="25.6744" fill="white" transform="translate(0.651001 0.0698853)"/>
</clipPath>
</defs>
</svg>
